<svg width="141" height="53" viewBox="0 0 141 53" fill="none" xmlns="http://www.w3.org/2000/svg">
<g clip-path="url(#clip0_79_1149)">
<path d="M0.566406 22.6872V-0.0181885H5.75746L13.255 16.63H12.182L19.6491 -0.0181885H24.8734V22.6872H19.4528V8.77249H20.8356L14.3447 22.6872H10.9706L4.44656 8.77249H5.93999V22.6872H0.566406Z" fill="#494949"/>
<path d="M26.334 22.6872L37.0424 -0.0181885H41.9099L52.6958 22.6872H46.6806L43.915 16.4379L46.2187 18.0846H32.7917L35.0623 16.4379L32.3381 22.6872H26.334ZM39.443 6.09659L35.6486 15.0821L34.7387 13.5699H44.2468L43.4338 15.0849L39.6062 6.09659H39.443Z" fill="#494949"/>
<path d="M54.1113 22.6872V-0.0181885H64.9193C67.5577 -0.0181885 69.5969 0.604815 71.0369 1.85082C72.4768 3.09683 73.1959 4.82497 73.194 7.03522C73.2354 8.36174 72.8979 9.67283 72.2206 10.8172C71.5422 11.8829 70.5591 12.7237 69.3969 13.2323C68.0024 13.8342 66.492 14.1255 64.9719 14.0859L65.265 13.279H66.8885C67.7973 13.2632 68.6876 13.5353 69.4301 14.0557C70.2042 14.6167 70.828 15.3573 71.2471 16.2129L74.7207 22.6872H68.1634L64.4326 15.4279C64.2219 14.9808 63.8424 14.6338 63.3761 14.4619C62.871 14.2848 62.3382 14.1984 61.8025 14.2066H60.1155V22.6762L54.1113 22.6872ZM60.1155 9.99654H63.8795C65.0502 9.99654 65.9371 9.766 66.54 9.30492C67.1457 8.84385 67.4499 8.14948 67.4499 7.22733C67.4499 6.30517 67.1457 5.64924 66.54 5.19913C65.9343 4.74903 65.0493 4.52124 63.8795 4.52124H60.1155V9.99654Z" fill="#494949"/>
<path d="M88.5767 23.0412C86.0877 23.0412 83.9407 22.5581 82.1356 21.5921C80.3668 20.6637 78.911 19.241 77.9485 17.5C76.9639 15.7398 76.4717 13.6787 76.4717 11.3166C76.4717 8.95449 76.9639 6.89885 77.9485 5.14968C78.9163 3.41757 80.3712 2.00242 82.1356 1.07682C83.9407 0.110747 86.0877 -0.372287 88.5767 -0.372287C90.0402 -0.389818 91.4972 -0.177701 92.8939 0.256209C94.0982 0.622385 95.2138 1.23056 96.1711 2.04289L94.3873 6.70857C93.5482 6.08448 92.6246 5.58093 91.6438 5.2128C90.7288 4.90874 89.7684 4.76118 88.8035 4.77643C86.8565 4.77643 85.3585 5.33997 84.3094 6.46705C83.2603 7.59413 82.7358 9.20882 82.7358 11.3111C82.7358 13.439 83.2603 15.0656 84.3094 16.1909C85.3585 17.3161 86.8565 17.8851 88.8035 17.8979C89.7681 17.9127 90.7283 17.7661 91.6438 17.4643C92.6241 17.094 93.5475 16.5896 94.3873 15.9658L96.1711 20.6315C95.2124 21.4418 94.0973 22.0498 92.8939 22.4182C91.4966 22.8489 90.0398 23.0591 88.5767 23.0412Z" fill="#494949"/>
<path d="M99.3184 22.6872V-0.0181885H105.323V8.7423H114.538V-0.0181885H120.542V22.6872H114.538V13.6056H105.323V22.6872H99.3184Z" fill="#494949"/>
<path d="M124.762 22.6872V-0.0181885H141.181V4.52124H130.506V8.87129H140.404V13.4436H130.506V18.1093H141.181V22.6844L124.762 22.6872Z" fill="#494949"/>
<path d="M36.5195 53.0826V27.9154H43.1736V47.621H54.0369V53.0826H36.5195Z" fill="#494949"/>
<path d="M57.3086 53.0826V27.9154H63.9654V53.0826H57.3086Z" fill="#494949"/>
<path d="M81.5992 53.4751C78.6492 53.4751 76.1601 52.939 74.132 51.8668C72.1745 50.8646 70.569 49.2972 69.5272 47.3713C68.4837 45.4428 67.9619 43.1932 67.9619 40.6225C67.9619 37.9585 68.5316 35.6449 69.6711 33.6816C70.8138 31.7126 72.5232 30.1271 74.58 29.1285C76.7151 28.0581 79.2816 27.5229 82.2795 27.5229C83.9387 27.4979 85.5925 27.7143 87.1885 28.1652C88.5246 28.5478 89.7755 29.1783 90.875 30.0232L88.8257 35.0539C88.1646 34.5995 87.4596 34.2115 86.7211 33.8957C86.0744 33.6247 85.399 33.4268 84.7077 33.3056C83.9288 33.1799 83.1405 33.1202 82.3514 33.1272C79.8568 33.1272 77.9919 33.7676 76.7566 35.0484C75.5213 36.3292 74.9036 38.1909 74.9036 40.6335C74.9036 43.0633 75.4678 44.893 76.5962 46.1225C77.7245 47.3521 79.5102 47.9714 81.9532 47.9806C82.768 47.9744 83.581 47.9029 84.3841 47.7665C85.2909 47.6151 86.1855 47.3995 87.0612 47.1215L85.8748 49.4791V43.4796H80.6201V38.9099H91.3037V51.51C89.8415 52.183 88.3015 52.6752 86.7183 52.9756C85.0324 53.3075 83.3179 53.4748 81.5992 53.4751Z" fill="#494949"/>
<path d="M95.6182 53.0826V27.9154H100.511L113.351 43.7293H112.298V27.9154H118.448V53.0826H113.567L100.798 37.2687H101.841V53.0826H95.6182Z" fill="#494949"/>
<path d="M123.136 53.0826V27.9154H141.336V32.9489H129.502V37.7682H140.473V42.8373H129.502V48.0135H141.336V53.0826H123.136Z" fill="#494949"/>
<path d="M30.5816 35.3558C29.4625 36.8708 28.4217 37.6283 27.4592 37.6283C27.2417 37.6501 27.0229 37.6004 26.8365 37.4869C26.6502 37.3733 26.5065 37.2022 26.4277 36.9998C26.2355 36.4129 26.1503 35.7967 26.176 35.1802C26.1809 34.3275 26.2558 33.4766 26.4 32.636C26.5454 31.8038 26.6213 30.9612 26.6268 30.1166C26.6268 28.2155 25.9271 27.2641 24.5277 27.2623C24.0244 27.2693 23.5266 27.3679 23.0591 27.5532C22.5204 27.7623 22.0081 28.0331 21.5325 28.3601C21.0095 28.7175 20.519 29.1197 20.0668 29.5622C19.5909 30.0271 19.1491 30.5251 18.7448 31.0524L20.2023 27.3967H17.857L15.946 32.1502C14.6765 33.7605 13.1101 35.1166 11.3302 36.1463C9.66024 37.1127 7.76256 37.624 5.82939 37.6283C5.45825 37.6289 5.08787 37.5949 4.72314 37.5268C4.37432 37.4638 4.03808 37.3452 3.72752 37.1755C3.43256 37.0123 3.18272 36.7795 3.00016 36.4976C2.80042 36.1669 2.70416 35.7848 2.7236 35.3998C2.7236 35.3119 2.7236 35.2049 2.7236 35.0814C2.72785 34.9648 2.74832 34.8493 2.78444 34.7383C2.99614 34.7761 3.211 34.7935 3.42607 34.7905C4.40173 34.8046 5.3732 34.661 6.3023 34.3651C7.12622 34.0977 7.90337 33.7051 8.60606 33.2014C9.21679 32.7645 9.73776 32.2158 10.141 31.5849C10.4946 31.0412 10.6863 30.4095 10.6941 29.7625C10.6979 29.4065 10.6194 29.0543 10.4645 28.7332C10.3096 28.412 10.0826 28.1304 9.80081 27.91C9.17305 27.4024 8.38099 27.1381 7.57172 27.1662C6.67734 27.1759 5.79899 27.403 5.01353 27.8276C4.15121 28.2802 3.37978 28.8858 2.73743 29.6143C2.05348 30.3875 1.50307 31.2675 1.10848 32.2189C0.692383 33.1977 0.478889 34.2496 0.480692 35.3119C0.45733 35.9118 0.564 36.5096 0.793495 37.065C1.02299 37.6204 1.36996 38.1204 1.81095 38.5312C2.69595 39.3528 3.98657 39.7635 5.68281 39.7635C6.89704 39.7708 8.1066 39.6139 9.27811 39.297C10.3896 38.9892 11.4581 38.5448 12.4586 37.9741C12.9936 37.6692 13.5099 37.3329 14.0045 36.9669L12.9702 39.5357H15.2905C16.0611 38.0026 16.9256 36.5178 17.8792 35.0896C18.7582 33.7981 19.7296 32.5709 20.7858 31.4175C21.22 30.9564 21.6017 30.5941 21.9225 30.295C22.177 30.0558 22.4549 29.8425 22.7522 29.6582C22.9282 29.551 23.1132 29.4591 23.3053 29.3838C23.4077 29.3428 23.516 29.3179 23.6261 29.3097C24.0548 29.3097 24.2677 29.6335 24.2677 30.284C24.2619 31.0275 24.1934 31.7693 24.0631 32.5016C23.9154 33.4549 23.8469 34.4188 23.8584 35.3833C23.8584 36.8653 24.1036 37.9631 24.5941 38.6767C25.0845 39.3903 25.8709 39.7489 26.9531 39.7526C27.9748 39.7743 28.9789 39.4871 29.8321 38.9292C30.6963 38.3375 31.4599 37.6131 32.0944 36.783L30.5816 35.3558ZM4.03174 31.4312C4.34924 31.0161 4.70984 30.6352 5.10757 30.295C5.464 29.9846 5.86357 29.7267 6.29401 29.5292C6.66075 29.356 7.06053 29.2624 7.46663 29.2548C8.21335 29.2548 8.5867 29.5704 8.5867 30.2017C8.57757 30.5439 8.45729 30.8741 8.24377 31.143C7.98119 31.4861 7.65207 31.7735 7.2758 31.9883C6.79797 32.2649 6.28172 32.4702 5.74365 32.5976C5.08026 32.7581 4.39924 32.8355 3.71646 32.8282H3.18546C3.41176 32.3314 3.69578 31.8625 4.03174 31.4312Z" fill="#494949"/>
</g>
<defs>
<clipPath id="clip0_79_1149">
<rect width="141" height="53" fill="white"/>
</clipPath>
</defs>
</svg>
