<svg width="106" height="40" viewBox="0 0 106 40" fill="none" xmlns="http://www.w3.org/2000/svg">
<g clip-path="url(#clip0_34_2607)">
<path d="M0.425781 17.1224V-0.0137329H4.32827L9.96475 12.551H9.15806L14.7717 -0.0137329H18.6991V17.1224H14.624V6.62074H15.6636L10.7839 17.1224H8.2474L3.34278 6.62074H4.4655V17.1224H0.425781Z" fill="#017A61"/>
<path d="M19.7969 17.1224L27.8472 -0.0137329H31.5064L39.615 17.1224H35.0929L33.0138 12.406L34.7457 13.6488H24.6516L26.3586 12.406L24.3106 17.1224H19.7969ZM29.6519 4.60119L26.7993 11.3827L26.1153 10.2414H33.2633L32.652 11.3848L29.7745 4.60119H29.6519Z" fill="#017A61"/>
<path d="M40.6797 17.1224V-0.0137329H48.8049C50.7883 -0.0137329 52.3213 0.456459 53.4039 1.39684C54.4864 2.33723 55.0269 3.64148 55.0256 5.30959C55.0567 6.31074 54.803 7.30024 54.2937 8.16388C53.7838 8.96821 53.0447 9.60282 52.1709 9.98665C51.1226 10.4409 49.9871 10.6607 48.8444 10.6308L49.0648 10.0219H50.2852C50.9684 10.0099 51.6377 10.2153 52.1959 10.6081C52.7778 11.0315 53.2468 11.5904 53.5619 12.2361L56.1732 17.1224H51.2437L48.4389 11.6437C48.2805 11.3062 47.9953 11.0443 47.6447 10.9146C47.265 10.781 46.8644 10.7157 46.4617 10.722H45.1934V17.1141L40.6797 17.1224ZM45.1934 7.54455H48.0231C48.9033 7.54455 49.57 7.37056 50.0232 7.02258C50.4785 6.6746 50.7073 6.15055 50.7073 5.45458C50.7073 4.75861 50.4785 4.26357 50.0232 3.92387C49.5679 3.58417 48.9026 3.41225 48.0231 3.41225H45.1934V7.54455Z" fill="#017A61"/>
<path d="M66.5895 17.3896C64.7183 17.3896 63.1042 17.0251 61.7473 16.296C60.4175 15.5953 59.3231 14.5215 58.5995 13.2076C57.8593 11.8792 57.4893 10.3236 57.4893 8.54088C57.4893 6.75816 57.8593 5.20673 58.5995 3.8866C59.3271 2.57935 60.4208 1.51131 61.7473 0.812744C63.1042 0.0836347 64.7183 -0.280919 66.5895 -0.280919C67.6897 -0.29415 68.785 -0.134062 69.835 0.193417C70.7404 0.469777 71.5791 0.928774 72.2988 1.54186L70.9577 5.06312C70.3269 4.59211 69.6326 4.21207 68.8953 3.93424C68.2074 3.70476 67.4853 3.5934 66.76 3.6049C65.2963 3.6049 64.1701 4.03022 63.3815 4.88084C62.5928 5.73147 62.1984 6.9501 62.1984 8.53674C62.1984 10.1427 62.5928 11.3703 63.3815 12.2196C64.1701 13.0688 65.2963 13.4983 66.76 13.5079C67.4852 13.519 68.207 13.4084 68.8953 13.1807C69.6322 12.9012 70.3264 12.5205 70.9577 12.0497L72.2988 15.571C71.578 16.1826 70.7397 16.6414 69.835 16.9194C68.7846 17.2445 67.6894 17.4032 66.5895 17.3896Z" fill="#017A61"/>
<path d="M74.665 17.1224V-0.0137329H79.1788V6.59796H86.1064V-0.0137329H90.6202V17.1224H86.1064V10.2684H79.1788V17.1224H74.665Z" fill="#017A61"/>
<path d="M93.793 17.1224V-0.0137329H106.137V3.41225H98.1113V6.6953H105.552V10.1461H98.1113V13.6674H106.137V17.1203L93.793 17.1224Z" fill="#017A61"/>
<path d="M27.4541 40.0623V21.0682H32.4564V35.9404H40.6232V40.0623H27.4541Z" fill="#017A61"/>
<path d="M43.083 40.0623V21.0682H48.0874V40.0623H43.083Z" fill="#017A61"/>
<path d="M61.3439 40.3586C59.1262 40.3586 57.255 39.954 55.7303 39.1448C54.2587 38.3884 53.0517 37.2055 52.2686 35.752C51.4841 34.2965 51.0918 32.5987 51.0918 30.6586C51.0918 28.648 51.5201 26.9019 52.3767 25.4202C53.2358 23.9341 54.5209 22.7375 56.0671 21.9838C57.6722 21.176 59.6016 20.7721 61.8554 20.7721C63.1027 20.7532 64.346 20.9165 65.5458 21.2568C66.5502 21.5456 67.4906 22.0214 68.3173 22.6591L66.7766 26.4558C66.2797 26.1129 65.7496 25.8201 65.1944 25.5817C64.7083 25.3772 64.2005 25.2278 63.6808 25.1364C63.0953 25.0415 62.5027 24.9964 61.9094 25.0018C60.0341 25.0018 58.632 25.4851 57.7034 26.4517C56.7747 27.4183 56.3104 28.8234 56.3104 30.6669C56.3104 32.5007 56.7345 33.8816 57.5828 34.8095C58.4311 35.7375 59.7735 36.2049 61.61 36.2118C62.2226 36.2072 62.8338 36.1532 63.4376 36.0502C64.1192 35.936 64.7918 35.7733 65.4502 35.5635L64.5582 37.3428V32.8148H60.6079V29.3661H68.6395V38.8755C67.5403 39.3834 66.3825 39.7549 65.1924 39.9816C63.925 40.2321 62.636 40.3584 61.3439 40.3586Z" fill="#017A61"/>
<path d="M71.8828 40.0623V21.0682H75.5608L85.2141 33.0032H84.4219V21.0682H89.0459V40.0623H85.3762L75.777 28.1273H76.5608V40.0623H71.8828Z" fill="#017A61"/>
<path d="M92.5703 40.0623V21.0682H106.253V24.8671H97.3564V28.5043H105.604V32.3301H97.3564V36.2366H106.253V40.0623H92.5703Z" fill="#017A61"/>
<path d="M22.9908 26.6837C22.1495 27.827 21.367 28.3987 20.6435 28.3987C20.4799 28.4152 20.3155 28.3777 20.1754 28.292C20.0353 28.2063 19.9273 28.0772 19.868 27.9244C19.7235 27.4815 19.6594 27.0164 19.6788 26.5511C19.6825 25.9076 19.7388 25.2654 19.8472 24.631C19.9565 24.0029 20.0135 23.3669 20.0177 22.7295C20.0177 21.2948 19.4917 20.5767 18.4396 20.5753C18.0613 20.5806 17.687 20.655 17.3356 20.7949C16.9306 20.9527 16.5454 21.1571 16.188 21.4038C15.7947 21.6736 15.426 21.9772 15.086 22.3111C14.7283 22.6619 14.3962 23.0378 14.0922 23.4358L15.1879 20.6768H13.4248L11.9881 24.2643C11.0338 25.4797 9.85619 26.5031 8.51811 27.2802C7.26268 28.0096 5.83605 28.3955 4.38275 28.3987C4.10374 28.3992 3.8253 28.3735 3.5511 28.3221C3.28887 28.2746 3.03609 28.1851 2.80262 28.057C2.58088 27.9338 2.39305 27.7581 2.25581 27.5453C2.10566 27.2958 2.03329 27.0074 2.0479 26.7168C2.0479 26.6505 2.0479 26.5697 2.0479 26.4765C2.05109 26.3885 2.06649 26.3014 2.09364 26.2176C2.25279 26.2461 2.41432 26.2593 2.576 26.257C3.30948 26.2677 4.0398 26.1592 4.73828 25.9359C5.35767 25.7341 5.94192 25.4378 6.47018 25.0577C6.92931 24.7279 7.32096 24.3138 7.62409 23.8377C7.88991 23.4274 8.03405 22.9506 8.03991 22.4623C8.04278 22.1936 7.98373 21.9278 7.86731 21.6854C7.75088 21.443 7.58019 21.2305 7.36836 21.0641C6.89643 20.681 6.30098 20.4816 5.69259 20.5028C5.02022 20.5102 4.3599 20.6815 3.76941 21.002C3.12115 21.3436 2.5412 21.8006 2.0583 22.3504C1.54413 22.9339 1.13034 23.5981 0.833702 24.3161C0.520889 25.0549 0.36039 25.8487 0.361746 26.6505C0.344182 27.1032 0.424374 27.5544 0.596902 27.9736C0.76943 28.3927 1.03027 28.7701 1.3618 29.0802C2.02711 29.7002 2.99737 30.0102 4.27256 30.0102C5.18538 30.0157 6.0947 29.8973 6.9754 29.6581C7.81103 29.4258 8.61424 29.0904 9.36638 28.6597C9.76865 28.4296 10.1567 28.1758 10.5286 27.8995L9.75102 29.8383H11.4954C12.0747 28.6813 12.7246 27.5606 13.4414 26.4827C14.1023 25.508 14.8326 24.5818 15.6266 23.7113C15.953 23.3633 16.2399 23.0899 16.4811 22.8641C16.6724 22.6836 16.8814 22.5226 17.1048 22.3836C17.2372 22.3026 17.3763 22.2333 17.5207 22.1764C17.5977 22.1455 17.679 22.1267 17.7618 22.1205C18.0841 22.1205 18.2442 22.3649 18.2442 22.8558C18.2398 23.417 18.1884 23.9769 18.0903 24.5295C17.9793 25.249 17.9278 25.9764 17.9365 26.7044C17.9365 27.8229 18.1208 28.6514 18.4895 29.19C18.8582 29.7285 19.4494 29.9992 20.263 30.0019C21.031 30.0184 21.7859 29.8016 22.4274 29.3805C23.077 28.934 23.6511 28.3872 24.1281 27.7608L22.9908 26.6837ZM3.03133 23.7217C3.27002 23.4084 3.5411 23.121 3.8401 22.8641C4.10807 22.6299 4.40845 22.4353 4.73204 22.2862C5.00775 22.1555 5.30829 22.0849 5.61359 22.0791C6.17495 22.0791 6.45563 22.3173 6.45563 22.7937C6.44876 23.052 6.35834 23.3012 6.19782 23.5042C6.00042 23.7631 5.753 23.98 5.47013 24.1421C5.1109 24.3509 4.7228 24.5058 4.3183 24.602C3.81958 24.7231 3.3076 24.7815 2.79431 24.776H2.39512C2.56524 24.4011 2.77876 24.0472 3.03133 23.7217Z" fill="#CD1426"/>
</g>
<defs>
<clipPath id="clip0_34_2607">
<rect width="106" height="40" fill="white"/>
</clipPath>
</defs>
</svg>
